<?xml version="1.0" encoding="UTF-8" standalone="no"?>
<!DOCTYPE svg PUBLIC "-//W3C//DTD SVG 1.1//EN"
 "http://www.w3.org/Graphics/SVG/1.1/DTD/svg11.dtd">
<!-- Generated by graphviz version 2.38.0 (20140413.2041)
 -->
<!-- Title: %3 Pages: 1 -->
<svg width="1449pt" height="107pt"
 viewBox="0.00 0.00 1449.00 107.00" xmlns="http://www.w3.org/2000/svg" xmlns:xlink="http://www.w3.org/1999/xlink">
<g id="graph0" class="graph" transform="scale(1 1) rotate(0) translate(4 103)">
<title>%3</title>
<polygon fill="white" stroke="none" points="-4,4 -4,-103 1445,-103 1445,4 -4,4"/>
<!-- 1227585606464 -->
<g id="node1" class="node"><title>1227585606464</title>
<polygon fill="none" stroke="black" points="471,-88 408,-88 408,-52 471,-52 471,-88"/>
<text text-anchor="middle" x="439.5" y="-66.9" font-family="Times New Roman,serif" font-size="12.00">Item Issue</text>
</g>
<!-- 1227585606752 -->
<g id="node9" class="node"><title>1227585606752</title>
<ellipse fill="none" stroke="black" cx="588" cy="-72" rx="27" ry="27"/>
</g>
<!-- 1227585606464&#45;&gt;1227585606752 -->
<g id="edge6" class="edge"><title>1227585606464&#45;&gt;1227585606752</title>
<path fill="none" stroke="black" d="M471.211,-70.4193C494.307,-70.7346 526.037,-71.1677 550.441,-71.5009"/>
<polygon fill="black" stroke="black" points="550.696,-75.0046 560.743,-71.6415 550.791,-68.0053 550.696,-75.0046"/>
<text text-anchor="middle" x="516" y="-74.4" font-family="Times New Roman,serif" font-size="12.00">{1: 1.0}</text>
</g>
<!-- 1227585606560 -->
<g id="node2" class="node"><title>1227585606560</title>
<polygon fill="none" stroke="black" points="754,-83 689,-83 689,-47 754,-47 754,-83"/>
<text text-anchor="middle" x="721.5" y="-61.9" font-family="Times New Roman,serif" font-size="12.00">Item Fixed</text>
</g>
<!-- 1227585606848 -->
<g id="node10" class="node"><title>1227585606848</title>
<ellipse fill="none" stroke="black" cx="855" cy="-37" rx="27" ry="27"/>
</g>
<!-- 1227585606560&#45;&gt;1227585606848 -->
<g id="edge3" class="edge"><title>1227585606560&#45;&gt;1227585606848</title>
<path fill="none" stroke="black" d="M754.332,-58.222C773.622,-54.1148 798.274,-48.8657 818.234,-44.6155"/>
<polygon fill="black" stroke="black" points="819.14,-48.0013 828.191,-42.4954 817.682,-41.1548 819.14,-48.0013"/>
<text text-anchor="middle" x="791" y="-57.4" font-family="Times New Roman,serif" font-size="12.00">{1: 1.0}</text>
</g>
<!-- 1227524016064 -->
<g id="node3" class="node"><title>1227524016064</title>
<polygon fill="none" stroke="black" points="1038,-55 956,-55 956,-19 1038,-19 1038,-55"/>
<text text-anchor="middle" x="997" y="-33.9" font-family="Times New Roman,serif" font-size="12.00">Send Package</text>
</g>
<!-- 1227585606944 -->
<g id="node11" class="node"><title>1227585606944</title>
<ellipse fill="none" stroke="black" cx="1139" cy="-37" rx="27" ry="27"/>
</g>
<!-- 1227524016064&#45;&gt;1227585606944 -->
<g id="edge5" class="edge"><title>1227524016064&#45;&gt;1227585606944</title>
<path fill="none" stroke="black" d="M1038.12,-37C1058.12,-37 1082.12,-37 1101.59,-37"/>
<polygon fill="black" stroke="black" points="1101.59,-40.5001 1111.59,-37 1101.59,-33.5001 1101.59,-40.5001"/>
<text text-anchor="middle" x="1075" y="-40.4" font-family="Times New Roman,serif" font-size="12.00">{1: 1.0}</text>
</g>
<!-- 1227585606656 -->
<g id="node4" class="node"><title>1227585606656</title>
<polygon fill="black" stroke="black" points="543,-36 489,-36 489,-0 543,-0 543,-36"/>
</g>
<!-- 1227585606656&#45;&gt;1227585606848 -->
<g id="edge2" class="edge"><title>1227585606656&#45;&gt;1227585606848</title>
<path fill="none" stroke="black" d="M543.163,-19.4751C602.762,-22.8352 748.748,-31.0659 817.307,-34.9313"/>
<polygon fill="black" stroke="black" points="817.44,-38.4442 827.621,-35.5128 817.834,-31.4553 817.44,-38.4442"/>
<text text-anchor="middle" x="652" y="-30.4" font-family="Times New Roman,serif" font-size="12.00">{1: 1.0}</text>
</g>
<!-- 1227500177200 -->
<g id="node5" class="node"><title>1227500177200</title>
<polygon fill="none" stroke="black" points="206,-56 128,-56 128,-20 206,-20 206,-56"/>
<text text-anchor="middle" x="167" y="-34.9" font-family="Times New Roman,serif" font-size="12.00">Create Order</text>
</g>
<!-- 1227585606368 -->
<g id="node8" class="node"><title>1227585606368</title>
<ellipse fill="none" stroke="black" cx="307" cy="-38" rx="27" ry="27"/>
</g>
<!-- 1227500177200&#45;&gt;1227585606368 -->
<g id="edge1" class="edge"><title>1227500177200&#45;&gt;1227585606368</title>
<path fill="none" stroke="black" d="M206.074,-38C225.956,-38 250.158,-38 269.763,-38"/>
<polygon fill="black" stroke="black" points="269.837,-41.5001 279.837,-38 269.837,-34.5001 269.837,-41.5001"/>
<text text-anchor="middle" x="243" y="-41.4" font-family="Times New Roman,serif" font-size="12.00">{1: 1.0}</text>
</g>
<!-- 1227524084976 -->
<g id="node6" class="node"><title>1227524084976</title>
<polygon fill="none" stroke="black" points="1305,-55 1240,-55 1240,-19 1305,-19 1305,-55"/>
<text text-anchor="middle" x="1272.5" y="-33.9" font-family="Times New Roman,serif" font-size="12.00">Pay Order</text>
</g>
<!-- 1226830104608 -->
<g id="node12" class="node"><title>1226830104608</title>
<ellipse fill="none" stroke="black" cx="1410" cy="-37" rx="27" ry="27"/>
<ellipse fill="none" stroke="black" cx="1410" cy="-37" rx="31" ry="31"/>
<text text-anchor="start" x="1400" y="-28.9" font-family="Times New Roman,serif" font-size="32.00">■</text>
</g>
<!-- 1227524084976&#45;&gt;1226830104608 -->
<g id="edge4" class="edge"><title>1227524084976&#45;&gt;1226830104608</title>
<path fill="none" stroke="black" d="M1305.27,-37C1324.19,-37 1348.38,-37 1368.64,-37"/>
<polygon fill="black" stroke="black" points="1368.83,-40.5001 1378.83,-37 1368.83,-33.5001 1368.83,-40.5001"/>
<text text-anchor="middle" x="1342" y="-40.4" font-family="Times New Roman,serif" font-size="12.00">{1: 1.0}</text>
</g>
<!-- 1226830104656 -->
<g id="node7" class="node"><title>1226830104656</title>
<ellipse fill="none" stroke="black" cx="27" cy="-38" rx="27" ry="27"/>
<text text-anchor="start" x="16" y="-29.3" font-family="Times New Roman,serif" font-size="34.00">●</text>
</g>
<!-- 1226830104656&#45;&gt;1227500177200 -->
<g id="edge12" class="edge"><title>1226830104656&#45;&gt;1227500177200</title>
<path fill="none" stroke="black" d="M54.2816,-38C72.1581,-38 96.3415,-38 117.637,-38"/>
<polygon fill="black" stroke="black" points="117.818,-41.5001 127.818,-38 117.818,-34.5001 117.818,-41.5001"/>
<text text-anchor="middle" x="91" y="-41.4" font-family="Times New Roman,serif" font-size="12.00">{1: 1.0}</text>
</g>
<!-- 1227585606368&#45;&gt;1227585606464 -->
<g id="edge8" class="edge"><title>1227585606368&#45;&gt;1227585606464</title>
<path fill="none" stroke="black" d="M333.472,-44.2459C351.702,-48.7163 376.633,-54.8295 397.63,-59.9782"/>
<polygon fill="black" stroke="black" points="397.029,-63.4344 407.575,-62.4168 398.696,-56.6358 397.029,-63.4344"/>
<text text-anchor="middle" x="371" y="-60.4" font-family="Times New Roman,serif" font-size="12.00">{1: 1.0}</text>
</g>
<!-- 1227585606368&#45;&gt;1227585606656 -->
<g id="edge7" class="edge"><title>1227585606368&#45;&gt;1227585606656</title>
<path fill="none" stroke="black" d="M334.032,-34.2317C339.933,-33.4383 346.177,-32.6467 352,-32 395.558,-27.1626 445.825,-23.0705 478.888,-20.5826"/>
<polygon fill="black" stroke="black" points="479.275,-24.0636 488.989,-19.8323 478.757,-17.0828 479.275,-24.0636"/>
<text text-anchor="middle" x="371" y="-35.4" font-family="Times New Roman,serif" font-size="12.00">{1: 1.0}</text>
</g>
<!-- 1227585606752&#45;&gt;1227585606560 -->
<g id="edge9" class="edge"><title>1227585606752&#45;&gt;1227585606560</title>
<path fill="none" stroke="black" d="M614.98,-70.617C633.037,-69.6558 657.504,-68.3534 678.332,-67.2447"/>
<polygon fill="black" stroke="black" points="678.729,-70.7286 688.529,-66.7019 678.357,-63.7385 678.729,-70.7286"/>
<text text-anchor="middle" x="652" y="-72.4" font-family="Times New Roman,serif" font-size="12.00">{1: 1.0}</text>
</g>
<!-- 1227585606848&#45;&gt;1227524016064 -->
<g id="edge10" class="edge"><title>1227585606848&#45;&gt;1227524016064</title>
<path fill="none" stroke="black" d="M882.005,-37C899.89,-37 924.22,-37 945.81,-37"/>
<polygon fill="black" stroke="black" points="945.825,-40.5001 955.824,-37 945.824,-33.5001 945.825,-40.5001"/>
<text text-anchor="middle" x="919" y="-40.4" font-family="Times New Roman,serif" font-size="12.00">{1: 1.0}</text>
</g>
<!-- 1227585606944&#45;&gt;1227524084976 -->
<g id="edge11" class="edge"><title>1227585606944&#45;&gt;1227524084976</title>
<path fill="none" stroke="black" d="M1166.29,-37C1184.38,-37 1208.77,-37 1229.52,-37"/>
<polygon fill="black" stroke="black" points="1229.68,-40.5001 1239.68,-37 1229.68,-33.5001 1229.68,-40.5001"/>
<text text-anchor="middle" x="1203" y="-40.4" font-family="Times New Roman,serif" font-size="12.00">{1: 1.0}</text>
</g>
</g>
</svg>
