<?xml version="1.0" encoding="UTF-8" standalone="no"?>
<!DOCTYPE svg PUBLIC "-//W3C//DTD SVG 1.1//EN"
 "http://www.w3.org/Graphics/SVG/1.1/DTD/svg11.dtd">
<!-- Generated by graphviz version 2.38.0 (20140413.2041)
 -->
<!-- Title: %3 Pages: 1 -->
<svg width="1485pt" height="107pt"
 viewBox="0.00 0.00 1485.00 107.00" xmlns="http://www.w3.org/2000/svg" xmlns:xlink="http://www.w3.org/1999/xlink">
<g id="graph0" class="graph" transform="scale(1 1) rotate(0) translate(4 103)">
<title>%3</title>
<polygon fill="white" stroke="none" points="-4,4 -4,-103 1481,-103 1481,4 -4,4"/>
<!-- 1227585685296 -->
<g id="node1" class="node"><title>1227585685296</title>
<polygon fill="none" stroke="black" points="238,-56 160,-56 160,-20 238,-20 238,-56"/>
<text text-anchor="middle" x="199" y="-34.9" font-family="Times New Roman,serif" font-size="12.00">Create Order</text>
</g>
<!-- 1227585685200 -->
<g id="node7" class="node"><title>1227585685200</title>
<ellipse fill="none" stroke="black" cx="371" cy="-38" rx="27" ry="27"/>
</g>
<!-- 1227585685296&#45;&gt;1227585685200 -->
<g id="edge1" class="edge"><title>1227585685296&#45;&gt;1227585685200</title>
<path fill="none" stroke="black" d="M238.151,-38C266.71,-38 305.529,-38 333.645,-38"/>
<polygon fill="black" stroke="black" points="333.853,-41.5001 343.853,-38 333.853,-34.5001 333.853,-41.5001"/>
<text text-anchor="middle" x="291" y="-41.4" font-family="Times New Roman,serif" font-size="12.00">{2: 0.5, 3: 0.5}</text>
</g>
<!-- 1227585685488 -->
<g id="node2" class="node"><title>1227585685488</title>
<polygon fill="none" stroke="black" points="627,-88 564,-88 564,-52 627,-52 627,-88"/>
<text text-anchor="middle" x="595.5" y="-66.9" font-family="Times New Roman,serif" font-size="12.00">Item Issue</text>
</g>
<!-- 1227585685776 -->
<g id="node8" class="node"><title>1227585685776</title>
<ellipse fill="none" stroke="black" cx="744" cy="-72" rx="27" ry="27"/>
</g>
<!-- 1227585685488&#45;&gt;1227585685776 -->
<g id="edge5" class="edge"><title>1227585685488&#45;&gt;1227585685776</title>
<path fill="none" stroke="black" d="M627.211,-70.4193C650.307,-70.7346 682.037,-71.1677 706.441,-71.5009"/>
<polygon fill="black" stroke="black" points="706.696,-75.0046 716.743,-71.6415 706.791,-68.0053 706.696,-75.0046"/>
<text text-anchor="middle" x="672" y="-74.4" font-family="Times New Roman,serif" font-size="12.00">{1: 1}</text>
</g>
<!-- 1227585685584 -->
<g id="node3" class="node"><title>1227585685584</title>
<polygon fill="none" stroke="black" points="1002,-83 937,-83 937,-47 1002,-47 1002,-83"/>
<text text-anchor="middle" x="969.5" y="-61.9" font-family="Times New Roman,serif" font-size="12.00">Item Fixed</text>
</g>
<!-- 1227585685872 -->
<g id="node9" class="node"><title>1227585685872</title>
<ellipse fill="none" stroke="black" cx="1094" cy="-37" rx="27" ry="27"/>
</g>
<!-- 1227585685584&#45;&gt;1227585685872 -->
<g id="edge2" class="edge"><title>1227585685584&#45;&gt;1227585685872</title>
<path fill="none" stroke="black" d="M1002.05,-57.7893C1019,-53.9154 1039.95,-49.1264 1057.47,-45.1216"/>
<polygon fill="black" stroke="black" points="1058.36,-48.5074 1067.33,-42.8671 1056.8,-41.6834 1058.36,-48.5074"/>
<text text-anchor="middle" x="1034.5" y="-56.4" font-family="Times New Roman,serif" font-size="12.00">{1: 1}</text>
</g>
<!-- 1227585685392 -->
<g id="node4" class="node"><title>1227585685392</title>
<polygon fill="none" stroke="black" points="1309,-55 1227,-55 1227,-19 1309,-19 1309,-55"/>
<text text-anchor="middle" x="1268" y="-33.9" font-family="Times New Roman,serif" font-size="12.00">Send Package</text>
</g>
<!-- 1227585685104 -->
<g id="node10" class="node"><title>1227585685104</title>
<ellipse fill="none" stroke="black" cx="1446" cy="-37" rx="27" ry="27"/>
<ellipse fill="none" stroke="black" cx="1446" cy="-37" rx="31" ry="31"/>
<text text-anchor="start" x="1436" y="-28.9" font-family="Times New Roman,serif" font-size="32.00">■</text>
</g>
<!-- 1227585685392&#45;&gt;1227585685104 -->
<g id="edge4" class="edge"><title>1227585685392&#45;&gt;1227585685104</title>
<path fill="none" stroke="black" d="M1309.38,-37C1338.03,-37 1376.32,-37 1404.91,-37"/>
<polygon fill="black" stroke="black" points="1404.97,-40.5001 1414.97,-37 1404.97,-33.5001 1404.97,-40.5001"/>
<text text-anchor="middle" x="1362" y="-40.4" font-family="Times New Roman,serif" font-size="12.00">{2: 0.5, 3: 0.5}</text>
</g>
<!-- 1227585685680 -->
<g id="node5" class="node"><title>1227585685680</title>
<polygon fill="black" stroke="black" points="699,-36 645,-36 645,-0 699,-0 699,-36"/>
</g>
<!-- 1227585685680&#45;&gt;1227585685872 -->
<g id="edge3" class="edge"><title>1227585685680&#45;&gt;1227585685872</title>
<path fill="none" stroke="black" d="M699.273,-19.1885C771.618,-22.4613 973.86,-31.6103 1056.81,-35.3627"/>
<polygon fill="black" stroke="black" points="1056.86,-38.8685 1067.01,-35.8241 1057.17,-31.8756 1056.86,-38.8685"/>
<text text-anchor="middle" x="854" y="-33.4" font-family="Times New Roman,serif" font-size="12.00">{2: 0.666667, 3: 0.333333}</text>
</g>
<!-- 1227585685008 -->
<g id="node6" class="node"><title>1227585685008</title>
<ellipse fill="none" stroke="black" cx="27" cy="-38" rx="27" ry="27"/>
<text text-anchor="start" x="16" y="-29.3" font-family="Times New Roman,serif" font-size="34.00">●</text>
</g>
<!-- 1227585685008&#45;&gt;1227585685296 -->
<g id="edge10" class="edge"><title>1227585685008&#45;&gt;1227585685296</title>
<path fill="none" stroke="black" d="M54.1899,-38C79.5444,-38 118.592,-38 149.604,-38"/>
<polygon fill="black" stroke="black" points="149.782,-41.5001 159.782,-38 149.782,-34.5001 149.782,-41.5001"/>
<text text-anchor="middle" x="107" y="-41.4" font-family="Times New Roman,serif" font-size="12.00">{2: 0.5, 3: 0.5}</text>
</g>
<!-- 1227585685200&#45;&gt;1227585685488 -->
<g id="edge7" class="edge"><title>1227585685200&#45;&gt;1227585685488</title>
<path fill="none" stroke="black" d="M397.959,-41.7334C436.245,-47.2398 508.213,-57.5902 553.629,-64.1219"/>
<polygon fill="black" stroke="black" points="553.334,-67.6154 563.73,-65.5747 554.33,-60.6867 553.334,-67.6154"/>
<text text-anchor="middle" x="481" y="-65.4" font-family="Times New Roman,serif" font-size="12.00">{1: 1}</text>
</g>
<!-- 1227585685200&#45;&gt;1227585685680 -->
<g id="edge6" class="edge"><title>1227585685200&#45;&gt;1227585685680</title>
<path fill="none" stroke="black" d="M397.414,-30.6854C403.458,-29.2141 409.918,-27.8578 416,-27 493.236,-16.1056 584.861,-15.94 634.542,-16.8984"/>
<polygon fill="black" stroke="black" points="634.704,-20.4027 644.779,-17.1238 634.858,-13.4044 634.704,-20.4027"/>
<text text-anchor="middle" x="481" y="-30.4" font-family="Times New Roman,serif" font-size="12.00">{2: 0.666667, 3: 0.333333}</text>
</g>
<!-- 1227585685776&#45;&gt;1227585685584 -->
<g id="edge8" class="edge"><title>1227585685776&#45;&gt;1227585685584</title>
<path fill="none" stroke="black" d="M771.076,-71.1833C809.32,-69.9855 881.023,-67.7398 926.683,-66.3097"/>
<polygon fill="black" stroke="black" points="926.965,-69.8027 936.85,-65.9913 926.746,-62.8061 926.965,-69.8027"/>
<text text-anchor="middle" x="854" y="-73.4" font-family="Times New Roman,serif" font-size="12.00">{1: 1}</text>
</g>
<!-- 1227585685872&#45;&gt;1227585685392 -->
<g id="edge9" class="edge"><title>1227585685872&#45;&gt;1227585685392</title>
<path fill="none" stroke="black" d="M1121.12,-37C1146.37,-37 1185.28,-37 1216.57,-37"/>
<polygon fill="black" stroke="black" points="1216.86,-40.5001 1226.86,-37 1216.86,-33.5001 1216.86,-40.5001"/>
<text text-anchor="middle" x="1174" y="-40.4" font-family="Times New Roman,serif" font-size="12.00">{2: 0.5, 3: 0.5}</text>
</g>
</g>
</svg>
